<?xml version="1.0" encoding="utf-8"?>
<!-- Generator: Adobe Illustrator 28.2.0, SVG Export Plug-In . SVG Version: 6.00 Build 0)  -->
<svg version="1.1" xmlns="http://www.w3.org/2000/svg" xmlns:xlink="http://www.w3.org/1999/xlink" x="0px" y="0px"
	 viewBox="0 0 1133.86 1133.86" style="enable-background:new 0 0 1133.86 1133.86;" xml:space="preserve">
<style type="text/css">
	.st0{opacity:0.99;}
	.st1{fill-rule:evenodd;clip-rule:evenodd;fill:#CCAB2F;}
	.st2{fill:#060505;}
	.st3{fill-rule:evenodd;clip-rule:evenodd;fill:none;}
</style>
<g id="Layer_1">
	<g>
		<g class="st0">
			<path class="st1" d="M128.48,917.89c-16.61,0-30.12-7.05-40.31-21.37c-10.07-14.32-15.16-34.97-15.16-61.77
				c0-26.79,5.1-47.33,15.16-61.64c10.19-14.31,23.7-21.53,40.31-21.53c16.61,0,30.12,7.22,40.19,21.53
				c10.19,14.32,15.29,34.85,15.29,61.64c0,26.79-5.1,47.45-15.29,61.77C158.6,910.83,145.1,917.89,128.48,917.89L128.48,917.89z
				 M206.04,975.23c18.1,0,32.4-9.14,42.71-27.5l-5.22-3.17c-5.93,5.59-13.34,8.39-22.33,8.39c-11.64,0-27.68-4.26-48.18-12.77
				c-12.26-5.01-22.45-8.56-30.57-10.64c11.06-1,21-3.17,29.87-6.72c37.37-14.44,56.3-47.45,56.3-88.06
				c0-53.92-33.52-95.36-100.14-95.36c-66.62,0-100.13,41.44-100.13,95.36c0,40.61,18.81,73.62,56.43,88.06
				c8.49,3.3,18.11,5.47,28.67,6.59c-7.17,1.96-14.33,5.76-21.63,11.48l4.97,6.34c5.72-4.51,11.56-6.8,17.48-6.8
				c10.56,0,24.52,5.84,42.13,17.4C174.01,969.39,190.63,975.23,206.04,975.23L206.04,975.23z M287.86,859.09l27.88-79.34
				l30.99,79.34H287.86L287.86,859.09z M349.63,755.21l51.95,132.96c7.17,17.28,17.94,27.21,32.52,29.63v8.6H335.8v-8.6
				c17.11-1.83,25.73-7.22,25.73-16.4c0-2.8-0.74-6.22-2.19-10.02l-7.75-20.11h-67.99l-6.79,19.36c-1.82,5.38-2.65,9.56-2.65,12.35
				c0,7.35,8.49,12.27,25.36,14.82v8.6h-72.96v-8.6c17.98-2.42,29.37-10.52,34.35-24.12l43.09-121.28
				c1.37-4.01,2.07-7.68,2.07-11.23c0-4.76-7.87-7.93-23.53-9.52v-8.56h50.38C340.89,743.11,346.48,747.16,349.63,755.21
				L349.63,755.21z M540.29,840.72c30.62,0,45.82,12.39,45.82,37.1c0,24.21-11.81,36.35-35.59,36.35c-17.94,0-26.8-6.14-26.8-18.36
				v-55.09H540.29L540.29,840.72z M523.72,828.54v-55.09c0-12.23,7.29-18.36,22.04-18.36c20.59,0,30.95,12.15,30.95,36.23
				c0,24.83-12.18,37.23-36.46,37.23H523.72L523.72,828.54z M551.77,926.36c27.09,0,46.77-4.13,59.04-12.56
				c12.39-8.47,18.56-20.45,18.56-35.97c-0.12-25.33-17.61-40.15-52.66-44.4c28.75-5.38,43.17-20.7,43.17-45.78
				c0-29.72-24.36-44.74-68.11-44.74h-95.99v8.56c18.35,2.42,27.43,9.77,27.43,21.99v122.36c0,12.23-9.07,19.57-27.43,21.99v8.56
				H551.77L551.77,926.36z M806.06,865.22h-8.49c-7.87,32.68-24.52,48.95-49.88,48.95c-20.26,0-30.33-6.14-30.33-18.36v-55.09
				c20.96,0,32.89,12.85,35.92,38.56h8.49v-89.31h-8.49c-3.03,25.71-14.96,38.56-35.92,38.56v-55.09
				c0-12.23,10.07-18.36,30.33-18.36c25.36,0,42.01,16.28,49.88,48.95h8.49l-7.29-61.14h-150.6v8.56
				c18.35,3.05,27.42,10.39,27.42,21.99v122.36c0,11.6-9.07,18.95-27.42,21.99v8.56h150.6L806.06,865.22L806.06,865.22z
				 M830.84,743.11v8.56c18.35,3.05,27.43,10.39,27.43,21.99v122.15c0,11.64-9.07,18.95-27.43,21.99v8.56h150.6l7.29-73.28h-8.49
				c-7.87,40.69-24.53,61.1-49.88,61.1c-20.26,0-30.33-6.14-30.33-18.36V773.66c0-11.6,9.07-18.95,27.42-21.99v-8.56H830.84
				L830.84,743.11z M1036.33,895.85c0,11.6-9.07,18.95-27.43,21.99v8.56h96.61v-8.56c-18.35-3.05-27.43-10.39-27.43-21.99v-122.2
				c0-11.6,9.07-18.91,27.43-21.99v-8.56h-96.61v8.56c18.35,3.09,27.43,10.39,27.43,21.99V895.85z"/>
			<path class="st1" d="M302.07,1068.16h-14.32c-4.73-13.63-8.2-22.64-10.37-27.03c-2.78-5.56-5.92-9.13-9.41-10.76
				c-2.78-1.26-7.74-1.92-14.9-1.92c-4.2,0-7.94,0.05-11.18,0.15c0,15.33,0.28,28.52,0.89,39.57h-13.79
				c0.73-14.72,1.11-30.92,1.11-48.67c0-16.69-0.38-31.36-1.11-43.99h10.45c2.23,0,5.03-0.05,8.45-0.19
				c3.42-0.15,7.31-0.22,11.71-0.22c21.63,0,32.46,7.17,32.46,21.5c0,11.9-6.07,20.28-18.24,25.11v0.71
				c5.44,1.58,9.84,5.2,13.2,10.88C289.83,1038.04,294.83,1049.65,302.07,1068.16L302.07,1068.16z M279.38,1001.41
				c0-11.29-7.94-16.93-23.86-16.93c-5.69,0-10.45,0.29-14.32,0.92c0.35,8.26,0.53,19.48,0.53,33.64c2.96,0.1,5.79,0.15,8.52,0.15
				C269.66,1019.19,279.38,1013.26,279.38,1001.41L279.38,1001.41z M381.07,1057.42l-0.45,10.74h-59.73
				c0.68-14.72,1.04-30.92,1.04-48.67c0-16.69-0.35-31.36-1.04-43.99h56.03l-0.61,10.62c-13.58-0.56-27.98-0.85-43.21-0.85
				c0.3,7.36,0.46,17.29,0.46,29.8c13.13,0,24.84-0.27,35.11-0.85v10.62c-10.95-0.44-22.67-0.66-35.11-0.66
				c0,12.19,0.23,23.63,0.66,34.32C350.64,1058.49,366.24,1058.13,381.07,1057.42L381.07,1057.42z M456.2,1044.18
				c0,17.54-12.72,26.33-38.15,26.33c-9.31,0-17.56-1.02-24.77-3.06l2.6-11.17c8.3,2.75,16.16,4.13,23.63,4.13
				c16.8,0,25.2-4.57,25.2-13.67c0-4.59-2.18-8.53-6.53-11.81c-2.91-2.19-8.63-5.1-17.18-8.77c-9.01-3.84-15.31-7.36-18.9-10.59
				c-5.01-4.47-7.49-10.06-7.49-16.78c0-7.04,2.53-12.75,7.64-17.17c5.66-4.93,13.71-7.38,24.08-7.38c11.76,0,19.81,0.73,24.16,2.21
				l-1.8,11.3c-7.49-2.26-15.48-3.4-23.93-3.4c-12.7,0-19.05,4.08-19.05,12.24c0,3.93,1.85,7.24,5.49,9.89
				c2.38,1.65,7.61,4.18,15.71,7.55c9.23,3.84,15.91,7.48,20.01,10.95C453.11,1030.19,456.2,1036.58,456.2,1044.18L456.2,1044.18z
				 M539.2,975.49l-0.35,10.06c-9.79-0.48-19.91-0.73-30.33-0.73c-0.1,9.11-0.15,20.67-0.15,34.66c0,15.47,0.25,31.7,0.76,48.67
				h-13.56c0.58-16.18,0.89-32.4,0.89-48.67c0-13.8-0.15-25.36-0.46-34.66c-7.31,0-17.58,0.29-30.81,0.85l0.35-10.18H539.2
				L539.2,975.49z M630.52,1068.16c0-2.6-6.07-18-18.24-46.17c-12.14-28.2-18.21-43.67-18.21-46.49h-17.2
				c0,2.87-6.37,18.58-19.12,47.15c-12.75,28.59-19.12,43.77-19.12,45.52h14.98c0-3.42,3.06-13.41,9.18-29.95h42.78
				c6.22,16.78,9.33,26.77,9.33,29.95H630.52L630.52,1068.16z M602.14,1028.88h-36.25c12.02-28.13,18.01-42.94,18.01-44.4h0.81
				C584.71,986.23,590.52,1001.02,602.14,1028.88L602.14,1028.88z M721.16,975.49c-0.18,8.99-0.33,17.34-0.43,25.14
				c-0.1,7.77-0.15,15.04-0.15,21.76c0,31.79-13.08,47.68-39.21,47.68c-6.81,0-12.65-0.92-17.53-2.82
				c-4.86-1.87-8.85-4.74-11.99-8.6c-3.14-3.86-5.44-8.74-6.91-14.62c-1.44-5.88-2.18-12.85-2.18-20.86
				c0-7.02-0.05-14.48-0.15-22.37c-0.1-7.89-0.25-16.32-0.46-25.31h14.09c-0.58,18.1-0.89,32.26-0.89,42.51
				c0,8.23,0.41,14.96,1.26,20.16c0.84,5.2,2.33,9.52,4.48,13c2.15,3.45,4.86,5.9,8.12,7.36c3.27,1.46,7.41,2.16,12.45,2.16
				c5.29,0,9.59-0.7,12.9-2.16c3.29-1.46,6-3.84,8.07-7.19c2.07-3.35,3.57-7.63,4.45-12.87c0.88-5.25,1.31-12.12,1.31-20.6
				c0-5.03-0.07-11.05-0.25-18.05c-0.18-7-0.43-15.11-0.76-24.31H721.16L721.16,975.49z M820.5,1068.16h-14.32
				c-4.73-13.63-8.2-22.64-10.37-27.03c-2.78-5.56-5.92-9.13-9.41-10.76c-2.78-1.26-7.74-1.92-14.9-1.92
				c-4.2,0-7.94,0.05-11.18,0.15c0,15.33,0.28,28.52,0.89,39.57h-13.79c0.73-14.72,1.11-30.92,1.11-48.67
				c0-16.69-0.38-31.36-1.11-43.99h10.45c2.23,0,5.03-0.05,8.45-0.19c3.42-0.15,7.31-0.22,11.71-0.22c21.63,0,32.45,7.17,32.45,21.5
				c0,11.9-6.07,20.28-18.24,25.11v0.71c5.44,1.58,9.84,5.2,13.2,10.88C808.25,1038.04,813.26,1049.65,820.5,1068.16L820.5,1068.16z
				 M797.8,1001.41c0-11.29-7.94-16.93-23.85-16.93c-5.69,0-10.45,0.29-14.32,0.92c0.35,8.26,0.53,19.48,0.53,33.64
				c2.96,0.1,5.79,0.15,8.52,0.15C788.09,1019.19,797.8,1013.26,797.8,1001.41L797.8,1001.41z M918.09,1068.16h-15.63
				c0-3.18-3.11-13.16-9.33-29.95h-42.78c-6.12,16.54-9.18,26.52-9.18,29.95h-14.98c0-1.75,6.38-16.93,19.12-45.52
				c12.75-28.56,19.12-44.28,19.12-47.15h17.2c0,2.82,6.07,18.29,18.21,46.49C912.02,1050.16,918.09,1065.56,918.09,1068.16
				L918.09,1068.16z M889.71,1028.88c-11.61-27.86-17.43-42.65-17.43-44.4h-0.81c0,1.46-6,16.27-18.01,44.4H889.71L889.71,1028.88z
				 M1007.24,1068.16h-10.37c0-0.8-8.09-12.17-24.31-34.08c-16.95-23.03-26.61-37.53-28.96-43.55h-0.76
				c0.89,11.42,1.34,21.23,1.34,29.39c0,15.93,0.38,32.01,1.11,48.24h-12.45c0.83-15.42,1.27-31.65,1.27-48.67
				c0-16.74-0.43-31.41-1.27-43.99h14.22c0,1.34,7.46,12.15,22.39,32.45c15.61,21.35,24.51,35.27,26.69,41.7h0.73
				c-0.83-11.56-1.26-21.4-1.26-29.46c0-17.54-0.33-32.45-1.04-44.69h12.67c-0.83,12.58-1.26,27.25-1.26,43.99
				C1005.97,1036.51,1006.4,1052.73,1007.24,1068.16L1007.24,1068.16z M1105.51,1066.24c-8.09,2.55-16.29,3.84-24.54,3.84
				c-17.33,0-30.41-4.45-39.24-13.33c-8.83-8.89-13.23-19.89-13.23-32.98c0-13.24,4.81-24.8,14.37-34.69
				c9.59-9.91,22.89-14.84,39.89-14.84c6.12,0,11.91,0.68,17.4,2.06l-1.85,11.8c-8.15-1.89-14.72-2.84-19.71-2.84
				c-11.97,0-21.12,3.47-27.47,10.42c-6.35,6.95-9.51,15.57-9.51,25.87c0,10.35,3.64,19.41,10.93,27.18
				c7.29,7.8,17.58,11.68,30.86,11.68c2.43,0,6.05-0.36,10.9-1.07c-0.86-4.93-1.26-10.69-1.26-17.22c0-5.51-0.35-10.91-1.04-16.15
				h13.48c-0.4,6.27-0.58,12.87-0.58,19.84C1104.93,1048.8,1105.11,1055.6,1105.51,1066.24z"/>
			<path class="st1" d="M734.35,470.36c16.32,15.97,30.01,64.19,7.7,90.88C722.08,531.53,718.9,493.22,734.35,470.36z"/>
			<path class="st1" d="M803.35,425.22c15.36,29.89-0.02,73.98-29.59,90.05C765.09,480.38,777.63,442.44,803.35,425.22z"/>
			<path class="st1" d="M807.52,667.51c-43.58-14.17-78.71-16.3-101.94-15.85c-73.75,1.42-101.1,32.21-175.83,26.33
				c-7.64-0.6-38.25-3.35-75.21-16.39c-27.32-9.64-52.89-24.46-104.04-54.11c-7.42-4.3-16.59-9.71-16.29-10.29
				c0.38-0.73,15.85,6.67,28.07,12.64c0,0,0,0,0,0c0,0,21.68,10.84,46.93,17.36c42.01,10.85,90,7.29,90,7.29
				c32.29-2.39,54.65-9.33,84-18.43c53.55-16.6,80.27-34.52,90.34-41.68c5.62-4,10.13-7.55,13.23-10.07
				c-14.24,47.93-3.95,81.72-102.06,87.09c33.44-11.62,33.19-30.21,49.78-45.31c9.73-8.19,19.66-16.83,30.62-24.74
				c-70.87,51.41-42.28,63.7-166.83,86.76c46.28,0.93,92.34-2.13,137.7-17.82c34.29-12.16,61.54-29.74,88.62-47.44
				c26.82-21.67,55.03-30.79,84.56-28.13c-15.72,17.27-39.83,29.57-70.91,33.86c-20.89,2.89-35.08,20.61-52.71,29.44
				c123.4-52.24,165.19,32.34,243.79,33.65c-43.96,28.69-77.78,32.73-100.18,31.36c-57.34-3.49-92.99-45.64-157.29-39.43
				c-9.27,0.9-31.75,4.02-31.88,3.31c-0.1-0.55,13.26-3.05,22.32-4.59c5.55-0.94,10.67-1.63,15.51-2.15
				c2.49-0.27,9.28-0.99,18.19-1.41c5.31-0.25,11.78-0.41,19.2-0.29"/>
			<g>
				<g>
					<defs>
						<path id="SVGID_1_" d="M644.66,325.63c-8.01,34.93-23.26,55.32-54.79,87.61c-33.33,34.15-39.19,74.75-3.46,107.05
							c-7.71-29.8,15.64-44.06,42.77-73.49C678.52,393.26,660.99,351.87,644.66,325.63L644.66,325.63z M593.35,235.45
							c33.66,37.65,42.67,86.75-23.25,163.53c-36.24,42.21-49.46,78.57-28.88,121.31c-66.88-46.32-68.28-104.55-23.21-153.53
							C560.65,320.44,589.72,285.54,593.35,235.45L593.35,235.45z M533.89,144.02c41.27,46.16,49.92,103.96-30.91,198.11
							c-44.44,51.76-52.22,104.8-26.99,157.21c-82.02-56.8-83.73-128.2-28.46-188.26C499.81,254.3,529.44,205.45,533.89,144.02z"/>
					</defs>
					<use xlink:href="#SVGID_1_"  style="overflow:visible;fill-rule:evenodd;clip-rule:evenodd;fill:#CCAB2F;"/>
					<clipPath id="SVGID_00000173882175358445482010000013335461404819269529_">
						<use xlink:href="#SVGID_1_"  style="overflow:visible;"/>
					</clipPath>
				</g>
			</g>
			<path class="st1" d="M703.54,524.5c22.95,26.43,29.98,57.34,10.98,83.52C688.02,579.47,688.22,551.55,703.54,524.5z"/>
			<path class="st1" d="M817.24,509.97c-3.6,30.86-33.94,59.56-60.77,59.42C766.75,537.46,792.4,512.46,817.24,509.97z"/>
			<path class="st1" d="M551.18,617.07c-7.77,0.51-18.92,0.7-32.12-1.04c-55.3-7.31-92.06-41.33-104.62-53.27
				c-11.76-11.18-19.61-21.28-24.32-27.39c-4.57-5.93-19.63-25.98-33.23-56.06c-3.48-7.7-9.32-21.48-14.59-39.37
				c-5.27-17.89-11.03-43.52-12.34-75.27v0c-0.01-0.19-1.81-63.41,21.1-121.21c10.37-26.17,24.64-48.13,24.64-48.13
				c2.55-3.92,5-7.46,7.3-10.64c0,0,0,0,0-0.01c0,0,0.02-0.02,0.02-0.02c0.01-0.02,10.77-13.04,12.13-14.61
				c46.37-53.33,99.41-77.86,99.41-77.86c31.46-11.41,58.73-16.16,78.61-18.28l0,0c12.25-1.37,97.03-10.27,141.05,8.94
				c0,0,22.5,9.82,23.99,7.39c0.02-0.04,0.04-0.07,0.04-0.07c0.6-1.45-5-5.09-12.74-10.07c-8.05-5.18-12.14-7.63-19.22-11.28
				c-36.19-18.64-67.98-27.67-67.98-27.67c-11.96-3.4-33.92-8.91-61.98-11.44c-7.41-0.67-52.54-4.42-101.71,6.07
				C433.92,44.48,343.51,72.96,279,159.92c-5.82,7.85-55.65,76.7-61.83,163.85c-2.81,39.57,3.87,76.07,4.67,80.33
				c4.69,24.87,11.51,44.36,16.06,55.95c3.33,8.51,9.33,22.66,18.58,39.11c4.37,7.77,8.11,13.64,9.83,16.29
				c0,0,12.75,19.69,26.7,35.19c17.33,19.26,52.6,45.89,98.49,61.32c14.01,4.71,47.52,14.7,91.68,14.2
				C511.15,625.85,534.44,621.42,551.18,617.07z"/>
			<path class="st1" d="M732.33,463.52c3.36-5.2,32.18-30.15,54.52-49.31c11.64-9.98,21.52-18.39,25.11-21.61
				c5.27,12.24,10.14,23.98,13.66,39.6c7.61,33.76,4.44,62.75,0.77,81.12c14.72-23.09,33.38-58.98,42.48-106.04
				c4.59-23.73,5.75-45.16,5.41-63.07v0l0,0c-0.06-25.06-3.15-56.8-14.16-91.54c0,0-10.36-32.65-28.18-62.99
				c-7.42-12.64-15.78-24.26-16.4-25.12c0,0-0.01-0.01-0.01-0.01c0,0-31.31-42.5-89.46-67.27c-84.22-35.88-225.66-0.98-225.3,1.98
				c0.22,1.78,53.7-12.85,110.35,10.71c17.75,7.38,32.11,16.97,37.77,20.92c4.77,3.32,27.61,19.61,50.2,49.1
				c3.7,4.83,18.6,24.65,31.8,54.88c16.33,37.38,21.41,70.76,23.17,90.85c4.78,54.49-7.05,98.7-16.34,124.66"/>
		</g>
		<path class="st1" d="M341.1,597.45"/>
	</g>
	<line class="st2" x1="896.51" y1="727.12" x2="796.51" y2="727.12"/>
	<ellipse class="st3" cx="544.59" cy="349.07" rx="319.42" ry="320.56"/>
	<path class="st3" d="M641.94,606.63"/>
</g>
<g id="Dimensions">
</g>
</svg>
